{"accessors" : [{"bufferView" : 0, "byteOffset" : 0, "componentType" : 5123, "count" : 18414, "type" : "SCALAR", "max" : [18413], "min" : [0]}, {"bufferView" : 1, "byteOffset" : 0, "componentType" : 5126, "count" : 18414, "type" : "VEC3", "max" : [149.64437866210938, 638.9124145507812, 334.6478271484375], "min" : [-183.40899658203125, 173.7587432861328, 16.50640106201172]}, {"bufferView" : 0, "byteOffset" : 36828, "componentType" : 5123, "count" : 1326, "type" : "SCALAR", "max" : [1325], "min" : [0]}, {"bufferView" : 2, "byteOffset" : 0, "componentType" : 5126, "count" : 1326, "type" : "VEC3", "max" : [218.1047821044922, 523.0181884765625, 251.8656463623047], "min" : [56.63811492919922, 381.0334777832031, 41.15353775024414]}, {"bufferView" : 0, "byteOffset" : 39480, "componentType" : 5123, "count" : 1122, "type" : "SCALAR", "max" : [1121], "min" : [0]}, {"bufferView" : 3, "byteOffset" : 0, "componentType" : 5126, "count" : 1122, "type" : "VEC3", "max" : [-47.91943359375, 578.0615234375, 178.36537170410156], "min" : [-233.6732635498047, 388.4097595214844, -7.104486465454102]}, {"bufferView" : 0, "byteOffset" : 41724, "componentType" : 5123, "count" : 1554, "type" : "SCALAR", "max" : [1553], "min" : [0]}, {"bufferView" : 4, "byteOffset" : 0, "componentType" : 5126, "count" : 1554, "type" : "VEC3", "max" : [144.16384887695312, 675.5689086914062, 269.6091003417969], "min" : [-156.48101806640625, 443.12371826171875, -29.33631134033203]}, {"bufferView" : 0, "byteOffset" : 44832, "componentType" : 5123, "count" : 1044, "type" : "SCALAR", "max" : [1043], "min" : [0]}, {"bufferView" : 5, "byteOffset" : 0, "componentType" : 5126, "count" : 1044, "type" : "VEC3", "max" : [131.23350524902344, 580.6475219726562, 418.5700378417969], "min" : [-81.69630432128906, 372.9228515625, 226.8331298828125]}, {"bufferView" : 0, "byteOffset" : 46920, "componentType" : 5123, "count" : 384, "type" : "SCALAR", "max" : [383], "min" : [0]}, {"bufferView" : 6, "byteOffset" : 0, "componentType" : 5126, "count" : 384, "type" : "VEC3", "max" : [-52.50271987915039, 589.2611083984375, 321.88275146484375], "min" : [-148.77059936523438, 464.50579833984375, 225.27902221679688]}, {"bufferView" : 0, "byteOffset" : 47688, "componentType" : 5123, "count" : 444, "type" : "SCALAR", "max" : [443], "min" : [0]}, {"bufferView" : 7, "byteOffset" : 0, "componentType" : 5126, "count" : 444, "type" : "VEC3", "max" : [-39.16501235961914, 684.1669921875, 96.46404266357422], "min" : [-184.97283935546875, 560.4823608398438, -19.43113136291504]}, {"bufferView" : 0, "byteOffset" : 48576, "componentType" : 5123, "count" : 2478, "type" : "SCALAR", "max" : [2477], "min" : [0]}, {"bufferView" : 8, "byteOffset" : 0, "componentType" : 5126, "count" : 2478, "type" : "VEC3", "max" : [468.1717834472656, 225.7440948486328, 781.9127197265625], "min" : [-600, 105.75846862792969, -538.87158203125]}], "asset" : {"generator" : "Aspose.3D 20.11", "version" : "2.0"}, "buffers" : [{"uri" : "buffer.bin", "byteLength" : 374760}], "bufferViews" : [{"buffer" : 0, "byteOffset" : 0, "byteLength" : 53532, "target" : 34963}, {"buffer" : 0, "byteOffset" : 53536, "byteLength" : 220968, "byteStride" : 12, "target" : 34962}, {"buffer" : 0, "byteOffset" : 274508, "byteLength" : 15912, "byteStride" : 12, "target" : 34962}, {"buffer" : 0, "byteOffset" : 290424, "byteLength" : 13464, "byteStride" : 12, "target" : 34962}, {"buffer" : 0, "byteOffset" : 303892, "byteLength" : 18648, "byteStride" : 12, "target" : 34962}, {"buffer" : 0, "byteOffset" : 322544, "byteLength" : 12528, "byteStride" : 12, "target" : 34962}, {"buffer" : 0, "byteOffset" : 335076, "byteLength" : 4608, "byteStride" : 12, "target" : 34962}, {"buffer" : 0, "byteOffset" : 339688, "byteLength" : 5328, "byteStride" : 12, "target" : 34962}, {"buffer" : 0, "byteOffset" : 345020, "byteLength" : 29736, "byteStride" : 12, "target" : 34962}], "materials" : [{"pbrMetallicRoughness" : {"baseColorFactor" : [0.7058823529411765, 0.19607843137254902, 0.01568627450980392, 1], "metallicFactor" : 0.16, "roughnessFactor" : 0.5}, "emissiveFactor" : [0, 0, 0], "alphaMode" : "OPAQUE", "doubleSided" : false}, {"pbrMetallicRoughness" : {"baseColorFactor" : [0.1411764705882353, 0.7333333333333333, 0.11372549019607843, 1], "metallicFactor" : 0, "roughnessFactor" : 0.21}, "emissiveFactor" : [0, 0, 0], "alphaMode" : "OPAQUE", "doubleSided" : false}, {"pbrMetallicRoughness" : {"baseColorFactor" : [0.20784313725490197, 0.792156862745098, 0.15294117647058825, 1], "metallicFactor" : 0, "roughnessFactor" : 0.17}, "emissiveFactor" : [0, 0, 0], "alphaMode" : "OPAQUE", "doubleSided" : false}, {"pbrMetallicRoughness" : {"baseColorFactor" : [0.03529411764705882, 0.6196078431372549, 0.12156862745098039, 1], "metallicFactor" : 0, "roughnessFactor" : 0.18}, "emissiveFactor" : [0, 0, 0], "alphaMode" : "OPAQUE", "doubleSided" : false}, {"pbrMetallicRoughness" : {"baseColorFactor" : [0.023529411764705882, 0.6352941176470588, 0.10980392156862745, 1], "metallicFactor" : 0, "roughnessFactor" : 0.2}, "emissiveFactor" : [0, 0, 0], "alphaMode" : "OPAQUE", "doubleSided" : false}, {"pbrMetallicRoughness" : {"baseColorFactor" : [0.11764705882352941, 0.6, 0.1568627450980392, 1], "metallicFactor" : 0, "roughnessFactor" : 0.2}, "emissiveFactor" : [0, 0, 0], "alphaMode" : "OPAQUE", "doubleSided" : false}, {"pbrMetallicRoughness" : {"baseColorFactor" : [0.0784313725490196, 0.7019607843137254, 0.047058823529411764, 1], "metallicFactor" : 0, "roughnessFactor" : 0.23}, "emissiveFactor" : [0, 0, 0], "alphaMode" : "OPAQUE", "doubleSided" : false}, {"pbrMetallicRoughness" : {"baseColorFactor" : [0.5137254901960784, 0.3686274509803922, 0.12941176470588237, 1], "metallicFactor" : 0.19, "roughnessFactor" : 0.58}, "emissiveFactor" : [0, 0, 0], "alphaMode" : "OPAQUE", "doubleSided" : false}], "meshes" : [{"primitives" : [{"attributes" : {"POSITION" : 1}, "indices" : 0, "material" : 0, "mode" : 4}]}, {"primitives" : [{"attributes" : {"POSITION" : 3}, "indices" : 2, "material" : 1, "mode" : 4}]}, {"primitives" : [{"attributes" : {"POSITION" : 5}, "indices" : 4, "material" : 2, "mode" : 4}]}, {"primitives" : [{"attributes" : {"POSITION" : 7}, "indices" : 6, "material" : 3, "mode" : 4}]}, {"primitives" : [{"attributes" : {"POSITION" : 9}, "indices" : 8, "material" : 4, "mode" : 4}]}, {"primitives" : [{"attributes" : {"POSITION" : 11}, "indices" : 10, "material" : 5, "mode" : 4}]}, {"primitives" : [{"attributes" : {"POSITION" : 13}, "indices" : 12, "material" : 6, "mode" : 4}]}, {"primitives" : [{"attributes" : {"POSITION" : 15}, "indices" : 14, "material" : 7, "mode" : 4}]}], "nodes" : [{"mesh" : 0, "name" : "Trunk"}, {"mesh" : 1, "name" : "Left"}, {"mesh" : 2, "name" : "Right"}, {"mesh" : 3, "name" : "Main"}, {"mesh" : 4, "name" : "Back"}, {"mesh" : 5, "name" : "Small Branch 1"}, {"mesh" : 6, "name" : "Small Branch 2"}, {"mesh" : 7, "name" : "MeshBody20"}, {"children" : [0, 1, 2, 3, 4, 5, 6, 7], "name" : "Tree Design v5"}], "scene" : 0, "scenes" : [{"nodes" : [8]}]}